<svg xmlns="http://www.w3.org/2000/svg" fill="none" viewBox="0 0 1500 500" height="500" width="1500">
<mask height="342" width="1440" y="79" x="30" maskUnits="userSpaceOnUse" style="mask-type:luminance" id="mask0_85_24">
<path fill="white" d="M1469.82 79H30V420.558H1469.82V79Z"></path>
</mask>
<g mask="url(#mask0_85_24)">
<path fill="#020203" d="M848.234 280.134C811.613 272.126 814.859 205.55 874.577 203.559C858.158 204.648 826.522 224.877 836.426 238.796C842.588 247.433 853.94 239.216 862.067 240.998C870.213 242.779 875.259 252.002 872.674 264.14C870.296 275.312 859.234 282.544 848.234 280.134Z"></path>
<path fill="#020203" d="M1270.26 208.295H1306.65V142.641H1347.31V208.295V215.003V371.695C1347.31 380.626 1348.17 387.899 1349.91 393.496C1351.64 399.093 1353.92 403.411 1356.78 406.43C1359.61 409.47 1362.69 411.461 1366 412.425C1369.31 413.389 1372.53 413.871 1375.68 413.871C1386.7 413.871 1395.61 409.805 1402.37 401.651C1409.15 393.496 1413.47 384.168 1415.38 373.624L1421.99 376.014C1421.04 380.164 1419.61 384.817 1417.74 389.911C1415.86 395.005 1412.92 399.889 1408.99 404.523C1405.04 409.155 1399.93 412.99 1393.62 416.03C1387.32 419.07 1379.44 420.58 1369.99 420.58C1346.36 420.58 1329.87 415.946 1320.59 406.681C1311.3 397.437 1306.65 384.314 1306.65 367.377V215.003H1270.26V208.295ZM1234.38 361.151C1233.43 364.673 1231.61 369.704 1228.95 376.244C1226.28 382.785 1222 389.345 1216.19 395.886C1210.36 402.426 1202.48 408.19 1192.55 413.137C1182.63 418.084 1169.78 420.558 1154.03 420.558C1142.06 420.558 1129.61 418.63 1116.69 414.815C1103.78 410.978 1091.96 404.836 1081.24 396.368C1070.54 387.899 1061.79 376.789 1055 363.059C1048.25 349.329 1044.85 332.391 1044.85 312.268C1044.85 296.609 1047.77 282.082 1053.6 268.666C1059.44 255.251 1067.31 243.574 1077.24 233.68C1087.16 223.786 1098.83 216.03 1112.22 210.433C1125.62 204.837 1139.87 202.048 1155.01 202.048C1163.53 202.048 1172.25 203.096 1181.25 205.172C1190.22 207.247 1198.41 210.433 1205.83 214.751C1213.23 219.069 1219.38 224.645 1224.28 231.521C1229.16 238.397 1231.6 246.782 1231.6 256.676C1231.6 263.383 1229.46 268.896 1225.21 273.215C1220.94 277.533 1214.89 279.692 1207.01 279.692C1201.65 279.692 1196.52 278.498 1191.65 276.108C1186.77 273.718 1184.32 269.63 1184.32 263.886C1184.32 259.422 1185.42 253.992 1187.63 247.599C1189.85 241.206 1190.94 235.944 1190.94 231.773C1190.94 224.436 1187.32 218.756 1180.07 214.772C1172.83 210.79 1164.48 208.777 1155.03 208.777C1148.09 208.777 1140.92 209.657 1133.52 211.418C1126.12 213.179 1119.34 217.56 1113.2 224.604C1107.05 231.626 1102.01 242.17 1098.08 256.236C1094.15 270.28 1092.16 289.461 1092.16 313.735C1092.16 327.465 1093.03 340.42 1094.77 352.536C1096.51 364.673 1099.65 375.301 1104.22 384.398C1108.79 393.496 1115.1 400.707 1123.12 405.968C1131.14 411.23 1141.62 413.871 1154.55 413.871C1168.43 413.871 1179.84 411.796 1188.82 407.646C1197.79 403.495 1204.88 398.464 1210.09 392.552C1215.28 386.642 1219.14 380.646 1221.67 374.588C1224.19 368.53 1226.08 363.562 1227.33 359.726L1234.38 361.151ZM1013.67 408.589C1009.58 411.775 1004.68 414.584 999.009 416.974C993.351 419.364 986.401 420.558 978.214 420.558C963.078 420.558 952.137 417.289 945.354 410.727C938.572 404.187 933.941 394.985 931.397 383.183H930.446C929.185 386.054 927.448 389.66 925.256 393.957C923.043 398.276 919.673 402.426 915.083 406.409C910.512 410.392 904.454 413.746 896.886 416.471C889.318 419.175 879.703 420.537 868.062 420.537C854.828 420.537 844.262 419.028 836.384 415.989C828.505 412.949 822.364 409.196 817.939 404.732C813.535 400.267 810.619 395.236 809.192 389.639C807.765 384.042 807.063 378.864 807.063 374.064C807.063 362.891 809.275 353.941 813.68 347.232C818.084 340.525 823.853 335.179 830.924 331.175C838.017 327.193 845.895 323.902 854.559 321.365C863.224 318.808 871.969 316.083 880.799 313.211C891.2 309.689 899.781 306.671 906.563 304.113C913.346 301.556 918.619 298.453 922.402 294.764C926.186 291.096 928.792 286.463 930.198 280.867C931.624 275.27 932.327 267.681 932.327 258.101C932.327 227.078 929.205 208.777 894.984 202.048C909.479 202.048 921.617 203.893 931.377 207.562C941.136 211.229 949.035 216.176 955.011 222.423C961.01 228.65 965.247 235.672 967.766 243.511C970.295 251.33 971.551 259.568 971.551 268.184V387.501C971.551 396.766 972.981 402.992 975.815 406.178C978.648 409.364 982.737 410.978 988.099 410.978C991.57 410.978 995.206 410.329 998.972 409.071C1002.74 407.814 1006.37 405.885 1009.84 403.327L1013.67 408.589ZM930.962 296.462H930.012C929.392 300.612 924.181 304.763 914.421 308.914L878.959 323.294C868.868 327.444 861.155 333.272 855.8 340.776C850.444 348.281 847.757 357.629 847.757 368.803C847.757 373.582 848.232 378.55 849.162 383.664C850.114 388.78 851.851 393.329 854.373 397.311C856.896 401.294 860.431 404.585 865.001 407.142C869.572 409.7 875.485 410.978 882.722 410.978C893.123 410.978 901.538 408.736 908.011 404.271C914.462 399.805 919.363 394.208 922.671 387.501C925.979 380.793 928.192 373.519 929.288 365.7C930.384 357.881 930.942 350.775 930.942 344.382V296.462H930.962ZM208.716 413.452H245.108V85.7079H208.716V79H285.76V263.007H286.712C288.283 258.855 290.971 253.657 294.755 247.432C298.539 241.206 303.646 235.294 310.119 229.697C316.591 224.1 324.448 219.321 333.753 215.317C343.037 211.334 354.162 209.322 367.085 209.322C387.887 209.322 404.822 214.437 417.89 224.645C430.959 234.875 437.513 251.163 437.513 273.529V413.452H473.906V420.16H360.468V413.452H396.861V258.688C396.861 246.236 393.945 236.007 388.115 228.02C382.283 220.034 373.226 216.03 360.923 216.03C350.833 216.03 341.217 218.273 332.098 222.738C322.959 227.203 314.937 233.45 307.989 241.436C301.062 249.423 295.624 258.835 291.674 269.714C287.725 280.573 285.76 292.395 285.76 305.183V413.473H322.152V420.181H208.716V413.452Z"></path>
<path fill="#020203" d="M1410.19 260.993C1434.78 246.027 1416.18 198.631 1372.47 212.13C1384.63 208.819 1412.46 215.548 1408.67 228.104C1406.32 235.902 1396.1 232.799 1390.65 236.111C1385.19 239.445 1383.78 247.389 1388.6 255.543C1393.02 263.027 1402.8 265.48 1410.19 260.993Z"></path>
<path fill="#020203" d="M1458.87 260.993C1483.44 246.027 1464.86 198.631 1421.14 212.13C1433.31 208.819 1461.14 215.548 1457.35 228.104C1455 235.902 1444.78 232.799 1439.33 236.111C1433.86 239.445 1432.46 247.389 1437.28 255.543C1441.7 263.027 1451.48 265.48 1458.87 260.993Z"></path>
<path fill="#020203" d="M554.714 295.015C554.714 298.202 554.632 301.493 554.487 304.846C554.322 308.2 554.26 312.435 554.26 317.55C554.26 328.094 554.88 339.12 556.141 350.607C557.403 362.116 560.153 372.492 564.413 381.757C568.672 391.023 574.979 398.695 583.311 404.752C591.665 410.831 602.769 413.85 616.644 413.85C630.519 413.85 641.932 411.775 650.906 407.624C659.881 403.474 666.973 398.443 672.184 392.532C677.374 386.62 681.24 380.625 683.764 374.567C686.286 368.488 688.168 363.541 689.429 359.704L696.522 361.13C695.57 364.652 693.771 369.683 691.083 376.223C688.416 382.763 684.156 389.324 678.326 395.864C672.494 402.405 664.616 408.169 654.69 413.117C644.766 418.064 631.925 420.537 616.169 420.537C600.412 420.537 585.835 417.98 572.456 412.865C559.057 407.75 547.477 400.414 537.718 390.812C527.937 381.233 520.39 369.808 515.034 356.56C509.679 343.291 506.991 328.534 506.991 312.225C506.991 298.159 509.741 284.513 515.262 271.265C520.783 258.017 528.331 246.257 537.945 236.048C547.56 225.819 558.83 217.601 571.733 211.376C584.656 205.15 598.51 202.026 613.335 202.026C622.165 202.026 631.615 203.62 641.685 206.806C651.775 209.992 661.142 215.191 669.806 222.381C678.47 229.571 685.728 239.067 691.559 250.89C697.39 262.712 700.305 277.407 700.305 294.974H554.714V295.015ZM652.086 288.308C652.726 283.843 653.037 279.671 653.037 275.856C653.037 272.02 653.037 268.037 653.037 263.886C653.037 253.027 652.003 244.077 649.956 237.055C647.909 230.032 645.076 224.435 641.437 220.285C637.818 216.135 633.393 213.179 628.202 211.418C623.013 209.657 617.409 208.776 611.433 208.776C600.722 208.776 591.893 210.936 584.966 215.254C578.039 219.572 572.518 225.4 568.424 232.736C564.33 240.094 561.249 248.542 559.202 258.143C557.155 267.723 555.811 277.784 555.191 288.328H652.086V288.308Z"></path>
<path fill="#020203" d="M30 208.294H66.3925V142.64H107.045V208.294H146.767V215.002H107.045V371.694C107.045 380.624 107.913 387.898 109.65 393.495C111.387 399.092 113.661 403.41 116.494 406.429C119.327 409.468 122.408 411.46 125.717 412.424C129.025 413.388 132.25 413.87 135.394 413.87C146.415 413.87 155.327 409.804 162.109 401.649C168.891 393.495 173.213 384.167 175.116 373.623L181.732 376.013C180.781 380.163 179.354 384.817 177.473 389.91C175.591 395.004 172.675 399.889 168.726 404.521C164.797 409.154 159.669 412.99 153.362 416.03C147.056 419.068 139.177 420.578 129.728 420.578C106.093 420.578 89.6135 415.946 80.3292 406.68C71.045 397.436 66.3925 384.314 66.3925 367.376V215.002H30V208.294Z"></path>
</g>
</svg>
