<?xml version="1.0" encoding="utf-8"?>
<!-- Generator: Adobe Illustrator 27.5.0, SVG Export Plug-In . SVG Version: 6.00 Build 0)  -->
<svg version="1.1" id="Layer_2_00000041976096368859119410000007678494141751426223_"
	 xmlns="http://www.w3.org/2000/svg" xmlns:xlink="http://www.w3.org/1999/xlink" x="0px" y="0px" viewBox="0 0 104.1 71.6"
	 style="enable-background:new 0 0 104.1 71.6;" xml:space="preserve">
<g id="Layer_1-2_00000174564043203879265920000015150469615531308717_">
	<g>
		<path d="M104.1,40.9c0.1,19.9-17,32.5-34.9,30.5c-5.1-0.6-9.8-2.4-14.1-5.5c1.1-0.8,2.6-2.1,3.9-4.2c0.9-1.4,1.4-2.8,1.7-3.8l0,0
			c1.7,1.2,5.2,3.3,10,3.8c1.3,0.1,9.8,1,16.7-5.3c0.7-0.6,5.5-5,6.6-12c0.3-1.7,0.2-3,0.2-3.9c0-12.9,0-40.5,0-40.5h9.8V40.9z"/>
		<path d="M47.3,0h9.7c0,0,0,28.3,0,41.6c0,1.5-0.1,3.6-0.7,6.2c-0.3,1.4-1.5,6.2-5.2,11.3c-3.5,4.6-7.5,7.2-9.9,8.6
			c-2.4,1.4-8.4,4.2-16.4,3.9c-6-0.2-12-2-16.7-5.8c2.2-2.3,4.3-4.6,6.3-6.8c2.6,1.3,3.5,1.9,6,2.4c11.5,2.4,24.2-4.9,26.5-16.3
			c0.3-1.7,0.4-3.4,0.4-5.1C47.3,27.4,47.2,0.1,47.3,0L47.3,0z"/>
		<path d="M0.2,0h9.5c0,0-0.1,27.2-0.3,39.8c-0.1,1.2-0.1,2.6,0,4.1c0.1,1.6,0.3,3.1,0.6,4.4c-2.8,2.1-5.7,4.1-8.5,6.1
			c-0.3-1.4-0.9-3.6-1.2-6.4C-0.1,44.3,0,41.5,0,40.4C0.1,37.2,0.2,0,0.2,0z"/>
	</g>
</g>
</svg>
